<?xml version="1.0" encoding="utf-8"?>

<!-- License Agreement at http://iconmonstr.com/license/ -->

<!DOCTYPE svg PUBLIC "-//W3C//DTD SVG 1.1//EN" "http://www.w3.org/Graphics/SVG/1.1/DTD/svg11.dtd">
<svg version="1.1" xmlns="http://www.w3.org/2000/svg" xmlns:xlink="http://www.w3.org/1999/xlink" x="0px" y="0px"
	 width="512px" height="512px" viewBox="0 0 512 512" enable-background="new 0 0 512 512" xml:space="preserve">
<path id="quote-5-icon" d="M55.178,332.895c-22.22-79.435,26.876-198.974,151.004-223.472l16.886,36.498
	c-38.022,14.331-63.218,47.064-66.943,81.466c42.757,6.73,75.459,43.737,75.459,88.385
	C231.583,415.014,85.181,440.162,55.178,332.895z M285.595,332.895c-22.22-79.435,26.876-198.974,151.004-223.472l16.886,36.498
	c-38.022,14.331-63.218,47.064-66.943,81.466c42.757,6.73,75.459,43.737,75.459,88.385C462,415.014,315.598,440.162,285.595,332.895
	z"/>
</svg>
