<?xml version="1.0" encoding="utf-8"?>

<!-- License Agreement at http://iconmonstr.com/license/ -->

<!DOCTYPE svg PUBLIC "-//W3C//DTD SVG 1.1//EN" "http://www.w3.org/Graphics/SVG/1.1/DTD/svg11.dtd">
<svg version="1.1" xmlns="http://www.w3.org/2000/svg" xmlns:xlink="http://www.w3.org/1999/xlink" x="0px" y="0px"
	 width="512px" height="512px" viewBox="0 0 512 512" enable-background="new 0 0 512 512" xml:space="preserve">
<path id="quote-6-icon" d="M456.822,179.107c22.219,79.434-26.877,198.973-151.004,223.471l-16.887-36.498
	c38.023-14.33,63.219-47.064,66.943-81.465c-42.756-6.73-75.459-43.739-75.459-88.385
	C280.416,96.986,426.818,71.837,456.822,179.107z M226.405,179.107c22.22,79.434-26.876,198.973-151.004,223.471L58.515,366.08
	c38.022-14.33,63.218-47.064,66.943-81.465C82.702,277.885,50,240.876,50,196.23C50,96.986,196.402,71.837,226.405,179.107z"/>
</svg>
