<?xml version="1.0" standalone="no"?>
<!DOCTYPE svg PUBLIC "-//W3C//DTD SVG 20010904//EN"
 "http://www.w3.org/TR/2001/REC-SVG-20010904/DTD/svg10.dtd">
<svg version="1.0" xmlns="http://www.w3.org/2000/svg"
 width="72.000000pt" height="36.000000pt" viewBox="0 0 430.000000 170.000000"
 preserveAspectRatio="xMidYMid meet">

<g transform="translate(0.000000,170.000000) scale(0.100000,-0.100000)"
fill="#00A0FF" stroke="none">
<path d="M645 1634 c-88 -19 -213 -79 -286 -137 -102 -82 -182 -199 -226 -332
-23 -70 -27 -96 -27 -210 0 -114 4 -140 27 -210 31 -93 83 -185 149 -259 59
-68 179 -150 205 -142 10 3 60 61 110 128 123 166 125 167 214 177 41 5 95 18
121 31 90 42 156 141 165 249 5 53 4 57 -25 78 -55 41 -50 110 12 139 32 16
36 16 67 -2 43 -25 56 -64 35 -105 -9 -18 -16 -56 -16 -85 0 -107 -58 -229
-137 -292 -61 -47 -116 -70 -200 -84 l-78 -13 -92 -123 c-53 -70 -90 -128 -87
-136 7 -19 82 -37 180 -43 209 -14 438 88 569 255 257 324 184 790 -159 1018
-35 23 -61 34 -73 30 -10 -3 -63 -66 -118 -140 -55 -74 -108 -139 -118 -146
-10 -6 -51 -15 -90 -19 -160 -18 -268 -123 -284 -274 -5 -49 -3 -54 32 -90 32
-33 36 -43 31 -69 -12 -61 -56 -87 -110 -64 -46 19 -63 63 -43 108 9 18 17 65
20 105 8 132 90 259 205 317 28 14 85 31 129 38 l78 13 92 123 c53 70 90 128
87 136 -14 37 -240 56 -359 30z"/>
<path d="M2670 1300 c0 -87 -9 -100 -70 -100 l-50 0 0 -35 0 -35 48 0 c26 0
53 -5 60 -12 13 -13 17 -165 4 -185 -4 -6 -30 -13 -57 -15 -50 -3 -50 -3 -50
-38 l0 -35 52 -3 c64 -4 68 -12 61 -138 -5 -96 -25 -129 -85 -140 -30 -6 -33
-10 -33 -40 0 -30 3 -34 28 -34 43 1 107 35 133 71 21 30 25 48 29 154 l5 120
50 5 c50 5 50 5 50 40 0 35 0 35 -50 40 l-50 5 0 100 0 100 53 3 52 3 0 35 c0
34 -1 34 -44 34 -24 0 -48 6 -54 13 -6 7 -12 42 -14 77 l-3 65 -32 3 -33 3 0
-61z"/>
<path d="M2990 1325 l0 -35 125 0 125 0 0 35 0 35 -125 0 -125 0 0 -35z"/>
<path d="M1770 1315 c-10 -12 -10 -21 -2 -40 l12 -25 239 0 c132 0 242 -4 245
-9 9 -14 -29 -151 -62 -223 -31 -68 -103 -181 -124 -194 -29 -18 -125 148
-158 272 -16 66 -19 69 -49 72 -20 2 -33 -2 -36 -11 -7 -17 39 -166 72 -232
14 -27 43 -76 65 -108 21 -32 38 -62 36 -67 -15 -40 -221 -162 -296 -176 -47
-8 -62 -20 -62 -51 0 -34 23 -38 93 -19 81 23 180 75 256 137 33 27 65 49 69
49 5 0 40 -25 78 -56 66 -53 199 -126 256 -139 24 -6 29 -3 38 20 11 29 -1 55
-24 55 -43 0 -269 141 -283 176 -2 7 13 37 35 66 90 120 151 267 171 412 8 58
8 82 0 92 -9 11 -66 14 -284 14 -232 0 -274 -2 -285 -15z"/>
<path d="M3577 1324 c-11 -12 -8 -49 5 -62 9 -9 75 -12 234 -12 238 0 249 2
242 52 l-3 23 -236 3 c-129 1 -238 -1 -242 -4z"/>
<path d="M2895 1198 c-3 -7 -4 -168 -3 -358 l3 -345 138 -3 c164 -3 208 7 258
57 55 55 60 84 57 388 l-3 268 -223 3 c-173 2 -224 0 -227 -10z m373 -170 l3
-108 -151 0 -150 0 0 103 c0 57 3 107 7 111 4 3 70 5 147 4 l141 -3 3 -107z
m2 -289 l0 -101 -34 -34 -34 -34 -116 0 -116 0 0 135 0 135 150 0 150 0 0
-101z"/>
<path d="M3454 1006 c-3 -8 -4 -23 -2 -33 3 -16 17 -18 125 -21 90 -2 122 -6
126 -16 3 -7 -30 -78 -74 -156 -84 -151 -95 -193 -63 -238 33 -48 58 -52 292
-52 231 0 242 2 242 48 0 34 -92 202 -111 202 -8 0 -23 -6 -33 -13 -17 -13
-16 -17 13 -76 46 -90 45 -91 -154 -91 -148 0 -163 2 -179 19 -10 11 -16 24
-15 28 15 35 183 325 192 331 7 4 91 9 187 12 l175 5 0 30 0 30 -358 3 c-305
2 -358 0 -363 -12z"/>
</g>
</svg>
